<svg viewBox="0 0 20 20" xmlns="http://www.w3.org/2000/svg"><path d="M16.4,6.3V5.4C16.4,5.2,16.3,5,16,5h-4.3c-0.2,0-0.4,0.2-0.4,0.4v0.9c0,0.2,0.2,0.4,0.4,0.4h1v3.4H7.3V6.7h1 c0.2,0,0.4-0.2,0.4-0.4V5.4C8.7,5.2,8.5,5,8.3,5H4C3.8,5,3.6,5.2,3.6,5.4v0.9c0,0.2,0.2,0.4,0.4,0.4h1v8.6H4c-0.2,0-0.4,0.2-0.4,0.4 v0.9C3.6,16.8,3.8,17,4,17h4.3c0.2,0,0.4-0.2,0.4-0.4v-0.9c0-0.2-0.2-0.4-0.4-0.4h-1v-3.4h5.4v3.4h-1c-0.2,0-0.4,0.2-0.4,0.4v0.9 c0,0.2,0.2,0.4,0.4,0.4H16c0.2,0,0.4-0.2,0.4-0.4v-0.9c0-0.2-0.2-0.4-0.4-0.4h-1V6.7h1C16.3,6.7,16.4,6.5,16.4,6.3z"/></svg>