<svg viewBox="0 0 20 20" xmlns="http://www.w3.org/2000/svg"><path d="M17.5,4.5v-1C17.5,3.2,17.3,3,17,3h-5c-0.3,0-0.5,0.2-0.5,0.5v1C11.5,4.8,11.7,5,12,5h1.2v4H6.8V5H8c0.3,0,0.5-0.2,0.5-0.5 v-1C8.5,3.2,8.3,3,8,3H3C2.7,3,2.5,3.2,2.5,3.5v1C2.5,4.8,2.7,5,3,5h1.2v10H3c-0.3,0-0.5,0.2-0.5,0.5v1C2.5,16.8,2.7,17,3,17h5 c0.3,0,0.5-0.2,0.5-0.5v-1C8.5,15.2,8.3,15,8,15H6.8v-4h6.4v4H12c-0.3,0-0.5,0.2-0.5,0.5v1c0,0.3,0.2,0.5,0.5,0.5h5 c0.3,0,0.5-0.2,0.5-0.5v-1c0-0.3-0.2-0.5-0.5-0.5h-1.2V5H17C17.3,5,17.5,4.8,17.5,4.5z"/></svg>